<svg width="13" height="16" viewBox="0 0 13 16" fill="none" xmlns="http://www.w3.org/2000/svg">
<path d="M3.25 0.5H11.375C11.6758 0.5 11.9625 0.618064 12.1729 0.825195C12.3829 1.03201 12.4999 1.31053 12.5 1.59961V14.4004C12.4999 14.6895 12.3829 14.968 12.1729 15.1748C11.9625 15.3819 11.6758 15.5 11.375 15.5H3.25C2.51817 15.5 1.81788 15.2133 1.30273 14.7061C0.787964 14.1991 0.5 13.5133 0.5 12.7998V3.2002C0.5 2.48672 0.787964 1.80089 1.30273 1.29395C1.81788 0.78672 2.51817 0.5 3.25 0.5ZM3.25 10.7002C2.68889 10.7002 2.14909 10.9196 1.75 11.3125C1.35079 11.7056 1.12505 12.2405 1.125 12.7998C1.125 13.3593 1.35065 13.8949 1.75 14.2881C2.14908 14.6809 2.68896 14.9004 3.25 14.9004H11.875V10.7002H3.25ZM3.25 1.09961C2.68896 1.09961 2.14908 1.31905 1.75 1.71191C1.35065 2.10512 1.125 2.64072 1.125 3.2002V10.9258L1.87988 10.4785C2.2937 10.2333 2.76783 10.1016 3.25195 10.0996H11.875V1.09961H3.25ZM4.875 3.7002H8.125C8.21036 3.7002 8.2906 3.73388 8.34863 3.79102C8.4063 3.84788 8.4375 3.92303 8.4375 4C8.4375 4.07697 8.4063 4.15212 8.34863 4.20898C8.2906 4.26612 8.21036 4.2998 8.125 4.2998H4.875C4.78964 4.2998 4.7094 4.26612 4.65137 4.20898C4.5937 4.15212 4.5625 4.07697 4.5625 4C4.5625 3.92303 4.5937 3.84788 4.65137 3.79102C4.7094 3.73388 4.78964 3.7002 4.875 3.7002Z" fill="black" stroke="#6000FF"/>
</svg>
